<?xml version="1.0" standalone="no"?>
<!DOCTYPE svg PUBLIC "-//W3C//DTD SVG 20010904//EN"
 "http://www.w3.org/TR/2001/REC-SVG-20010904/DTD/svg10.dtd">
<svg version="1.0" xmlns="http://www.w3.org/2000/svg"
 width="500.000000pt" height="500.000000pt" viewBox="0 0 500.000000 500.000000"
 preserveAspectRatio="xMidYMid meet">
<metadata>
Created by potrace 1.14, written by Peter Selinger 2001-2017
</metadata>
<g transform="translate(0.000000,500.000000) scale(0.100000,-0.100000)"
fill="#000000" stroke="none">
<path d="M2181 4984 c-229 -31 -390 -73 -591 -151 -140 -55 -393 -182 -411
-206 -3 -4 -13 -5 -22 -1 -11 4 -17 1 -17 -9 0 -8 -19 -27 -43 -42 -170 -112
-404 -325 -536 -488 -306 -378 -493 -824 -550 -1312 -14 -116 -14 -434 0 -550
48 -410 184 -784 405 -1112 110 -163 185 -255 324 -393 362 -362 838 -605
1356 -692 121 -20 173 -23 404 -23 231 0 283 3 404 23 518 87 989 327 1356
692 138 137 213 228 324 393 221 328 357 702 405 1112 14 116 14 434 0 550
-98 839 -587 1555 -1330 1944 -272 143 -532 224 -852 266 -148 19 -481 18
-626 -1z m409 -568 c206 -34 412 -135 607 -297 45 -39 83 -75 83 -82 0 -7 10
3 21 20 12 18 25 31 29 28 10 -6 61 40 85 78 29 45 27 26 -6 -53 l-29 -73 22
-24 c12 -13 23 -39 24 -58 2 -20 6 -40 9 -44 3 -5 0 -11 -5 -13 -6 -2 1 -19
15 -38 21 -29 25 -31 25 -13 0 29 10 53 22 53 7 0 8 -20 4 -52 -4 -33 -2 -59
5 -68 9 -13 10 -12 5 3 -3 10 0 17 7 17 8 0 8 3 -1 9 -10 6 -7 10 11 13 22 4
25 2 20 -21 -2 -14 -10 -29 -16 -33 -9 -6 -9 -13 2 -30 75 -120 155 -319 180
-448 27 -139 31 -163 31 -193 0 -18 7 -41 15 -51 22 -29 19 -56 -5 -56 -11 0
-20 -4 -20 -9 0 -5 9 -11 20 -14 15 -4 20 -14 20 -36 0 -26 -4 -31 -25 -31
-16 0 -25 -6 -25 -15 0 -9 9 -15 25 -15 28 0 30 -6 15 -44 -7 -19 -17 -26 -35
-26 -22 0 -25 -4 -25 -34 0 -19 -5 -58 -11 -88 -6 -29 -13 -64 -16 -77 -9 -49
-23 2 -24 89 -1 64 -3 76 -9 50 -4 -19 -17 -57 -29 -83 -11 -27 -21 -63 -21
-80 0 -55 28 -140 61 -186 l31 -44 -16 -56 c-23 -80 -34 -88 -98 -71 -29 7
-72 21 -95 31 -72 31 -49 12 67 -53 23 -14 53 -20 91 -20 l57 0 -5 -36 c-9
-56 -28 -105 -44 -113 -8 -4 -54 -21 -104 -39 -49 -18 -128 -50 -174 -71 -46
-22 -92 -39 -103 -39 -25 0 -89 -33 -109 -56 -20 -23 -37 -74 -43 -133 -3 -24
-8 -46 -10 -49 -3 -3 -19 8 -36 25 -34 34 -60 116 -60 193 0 27 -5 52 -12 56
-8 5 -10 -22 -5 -107 3 -63 8 -121 12 -130 8 -21 -22 -34 -42 -18 -15 13 -63
112 -63 132 0 7 -7 30 -15 52 l-14 40 -1 -33 c0 -19 7 -59 16 -89 16 -54 16
-55 -7 -79 -29 -31 -37 -30 -78 6 -23 21 -40 28 -55 24 -18 -4 -26 2 -43 38
-12 24 -24 50 -27 58 -3 8 -3 -14 0 -50 l6 -65 -32 30 -32 30 -34 -39 c-19
-22 -37 -36 -41 -32 -4 4 -10 41 -14 84 -3 42 -7 63 -7 45 -2 -42 -22 -136
-31 -146 -4 -4 -25 4 -47 19 l-39 27 -37 -22 -38 -22 0 71 c0 77 -14 87 -25
17 -11 -63 -18 -72 -40 -47 l-19 20 -33 -32 -33 -32 -38 22 -37 21 2 133 c0
73 -1 120 -3 103 -20 -146 -57 -275 -78 -275 -28 0 -36 26 -37 119 -1 90 -2
93 -11 46 -29 -159 -31 -167 -55 -182 -13 -9 -25 -14 -27 -12 -2 2 -19 48 -37
103 -18 54 -45 115 -60 136 -52 72 -153 124 -301 155 l-78 17 -31 66 c-16 37
-36 78 -43 92 -25 46 -29 89 -12 115 22 33 36 31 72 -6 45 -48 85 -64 149 -60
22 1 129 60 122 67 -2 2 -25 -5 -51 -16 -75 -32 -117 -27 -160 18 -49 50 -60
95 -46 184 16 107 -5 151 -28 56 -27 -116 -42 -87 -90 182 -6 36 -12 45 -32
50 -19 4 -26 13 -28 38 -3 29 -1 32 23 32 32 0 29 23 -3 28 -18 3 -22 10 -22
38 0 24 5 34 15 34 8 0 15 5 15 10 0 6 -7 10 -15 10 -20 0 -20 59 0 66 12 5
15 26 15 98 0 144 44 411 77 471 8 13 6 22 -8 36 -30 30 -25 52 9 44 23 -5 30
-2 39 18 11 23 10 24 -12 13 -13 -6 -21 -14 -19 -18 3 -4 -3 -5 -12 -1 -16 6
-15 8 4 16 16 7 21 17 18 34 -3 13 5 42 16 66 11 23 26 52 32 65 7 17 16 22
33 19 20 -4 23 0 25 32 6 127 6 129 -32 186 -11 17 -23 36 -26 43 -3 6 -12 12
-19 12 -9 0 -13 11 -13 29 l1 28 30 -33 c16 -19 33 -34 39 -34 8 0 63 -37 93
-62 6 -5 -7 -2 -29 7 -42 18 -52 15 -41 -12 5 -10 9 -23 10 -29 7 -30 17 -54
23 -54 16 2 146 133 135 137 -77 28 -121 62 -160 123 -24 35 -43 68 -43 72 0
5 23 -10 52 -33 64 -50 198 -119 233 -119 14 0 40 -7 56 -16 28 -14 33 -14 54
0 23 15 41 26 135 78 59 32 271 114 335 129 28 7 61 15 75 20 39 12 127 10
220 -5z m-978 -2600 c36 -20 44 -31 50 -63 18 -98 -4 -461 -38 -630 -5 -28
-28 -30 -47 -3 -11 17 -12 35 0 122 14 104 7 279 -17 433 -5 33 -12 84 -15
113 -7 62 1 65 67 28z m112 -198 c15 -107 47 -257 83 -379 2 -9 25 -33 49 -53
40 -33 79 -98 106 -176 3 -8 3 12 1 46 l-6 61 34 7 c40 8 63 -13 79 -75 15
-55 23 -48 18 17 -2 46 0 59 15 68 13 8 21 8 35 -2 46 -33 61 -36 97 -19 30
15 38 15 69 2 33 -14 36 -13 64 10 26 22 31 23 48 10 21 -16 60 -20 68 -6 11
17 119 19 154 3 31 -15 33 -15 60 11 l28 27 33 -41 c34 -41 48 -45 111 -28 12
3 15 -7 13 -61 l-2 -65 14 34 c8 18 15 40 15 47 0 8 20 34 45 60 25 25 45 49
45 55 0 12 47 12 55 -1 3 -5 1 -35 -4 -67 -6 -31 -9 -58 -7 -60 2 -2 14 26 27
62 13 37 38 84 56 105 25 29 33 47 33 78 0 22 13 68 29 103 15 35 38 105 50
154 12 50 26 106 31 126 10 36 37 69 62 73 7 1 23 7 35 14 12 7 36 12 54 12
32 0 32 0 25 -42 -3 -24 -13 -112 -21 -196 -14 -140 -14 -161 1 -255 26 -157
28 -226 7 -266 -21 -41 -39 -50 -47 -23 -20 61 -36 224 -43 417 -7 213 -8 217
-16 125 -11 -125 -1 -403 18 -513 18 -100 14 -120 -38 -221 -59 -112 -150
-182 -273 -211 -55 -13 -58 -12 -108 15 -54 30 -143 57 -153 47 -3 -4 3 -10
13 -13 34 -13 76 -46 67 -55 -4 -4 -55 -3 -111 2 -57 6 -184 9 -283 7 -110 -2
-178 1 -176 7 2 5 28 22 57 37 30 15 50 28 45 28 -23 0 -151 -41 -187 -60 -30
-15 -49 -19 -76 -14 -107 20 -253 116 -383 251 l-91 95 7 52 c4 28 11 60 15
71 4 11 13 92 19 180 9 128 9 197 -2 345 -8 102 -12 189 -9 194 13 23 30 -35
46 -156z m402 6 c20 -68 32 -187 21 -209 -12 -25 -27 -35 -50 -35 -55 0 -64
230 -11 283 15 14 29 1 40 -39z m153 -13 c7 -16 11 -68 9 -127 -3 -98 -3 -99
-29 -102 -42 -5 -71 27 -76 85 -6 56 11 145 34 181 14 22 16 23 33 7 10 -9 23
-29 29 -44z m353 48 c48 -22 61 -55 66 -165 l5 -104 -29 -11 c-41 -15 -111
-16 -125 -2 -33 33 -17 217 22 267 23 29 28 30 61 15z m176 -32 c36 -52 52
-105 52 -174 0 -47 -2 -53 -24 -59 -37 -9 -57 -2 -80 29 -36 48 -25 247 14
247 5 0 22 -19 38 -43z m-355 6 c25 -28 38 -101 35 -188 l-3 -80 -68 -3 c-42
-2 -74 2 -83 9 -17 14 -18 74 -3 172 13 83 29 107 74 107 18 0 39 -8 48 -17z
m478 -15 c20 -38 39 -121 39 -175 0 -52 -1 -53 -29 -53 -42 0 -51 18 -54 111
-3 122 15 171 44 117z m-907 -107 c9 -107 3 -130 -28 -118 -26 10 -38 57 -32
118 14 144 48 144 60 0z m1067 24 c20 -53 25 -105 10 -105 -12 0 -30 52 -40
113 -10 62 5 57 30 -8z m-1156 -44 c3 -64 0 -81 -10 -81 -18 0 -29 60 -21 112
14 88 27 75 31 -31z m1114 -20 c6 -19 11 -45 11 -57 0 -26 -21 -32 -38 -11
-15 17 -26 92 -18 113 6 15 9 16 20 3 7 -8 18 -29 25 -48z m-1198 -134 c-25
-57 -41 -60 -41 -8 0 31 6 44 28 61 35 29 40 10 13 -53z m64 16 c-3 -10 -11
-37 -18 -61 -6 -23 -16 -41 -22 -39 -18 6 -16 51 5 85 21 34 47 45 35 15z
m195 -100 c0 -90 -3 -94 -53 -70 -37 16 -43 47 -22 110 19 59 31 70 57 54 15
-10 18 -25 18 -94z m108 74 c7 -15 18 -55 25 -88 10 -56 9 -63 -8 -75 -18 -13
-63 -11 -87 3 -10 5 -11 155 -2 178 10 26 57 15 72 -18z m504 27 c6 -5 3 -20
-24 -122 -12 -48 -40 -71 -64 -51 -11 9 -14 29 -12 78 3 64 4 66 38 83 37 18
53 21 62 12z m116 -84 c2 -47 0 -95 -3 -107 -6 -27 -31 -30 -43 -5 -13 27 -35
179 -27 192 4 6 21 10 38 8 l32 -3 3 -85z m122 70 c8 -15 8 -42 -1 -98 -15
-94 -24 -109 -50 -86 -16 14 -19 32 -19 111 l0 93 30 0 c19 0 33 -7 40 -20z
m175 -28 c0 -59 -19 -57 -23 2 -2 36 0 47 10 44 8 -3 13 -21 13 -46z m-1141
-40 c0 -83 -8 -97 -44 -79 -21 11 -25 20 -24 57 2 66 19 102 47 98 21 -3 22
-8 21 -76z m340 48 c6 -6 11 -43 11 -83 0 -66 -2 -72 -22 -75 -16 -2 -26 5
-36 25 -18 36 -40 140 -33 152 7 11 64 -3 80 -19z m730 24 c13 -5 16 -22 16
-80 0 -43 -4 -74 -10 -74 -18 0 -45 40 -56 84 -12 46 -9 59 16 69 8 3 16 6 17
6 1 1 8 -2 17 -5z m-616 -10 c20 -6 22 -12 22 -79 0 -58 -3 -74 -16 -79 -25
-10 -41 10 -59 69 -27 93 -18 108 53 89z m134 -54 c-4 -69 -19 -110 -42 -110
-20 0 -30 36 -30 110 0 56 5 62 45 58 30 -3 30 -3 27 -58z"/>
<path d="M1960 4124 c-70 -27 -107 -50 -97 -60 3 -4 26 5 50 19 25 15 66 35
93 46 71 29 31 24 -46 -5z"/>
<path d="M3105 4009 c27 -24 73 -69 102 -99 45 -47 53 -52 53 -32 0 16 -23 40
-82 88 -100 78 -143 104 -73 43z"/>
<path d="M1721 3967 c-18 -21 -20 -26 -7 -36 11 -9 18 -7 35 15 34 43 10 61
-28 21z"/>
<path d="M1700 3899 c0 -5 5 -7 10 -4 6 3 10 8 10 11 0 2 -4 4 -10 4 -5 0 -10
-5 -10 -11z"/>
<path d="M1421 3824 c0 -11 3 -14 6 -6 3 7 2 16 -1 19 -3 4 -6 -2 -5 -13z"/>
<path d="M3448 3419 c-10 -17 -18 -44 -18 -60 0 -22 -5 -29 -19 -29 -32 0 -34
-18 -4 -34 53 -27 107 -77 155 -143 26 -36 48 -72 48 -79 0 -8 7 -14 15 -14
25 0 17 17 -40 93 -77 100 -120 189 -120 249 0 27 0 48 0 48 0 0 -8 -14 -17
-31z"/>
<path d="M1967 3349 c7 -7 15 -10 18 -7 3 3 -2 9 -12 12 -14 6 -15 5 -6 -5z"/>
<path d="M2925 3315 l-30 -25 40 22 c50 27 51 28 34 28 -8 0 -27 -11 -44 -25z"/>
<path d="M1810 3321 c0 -4 -10 -6 -23 -4 -30 6 -107 -14 -107 -28 0 -6 -4 -7
-10 -4 -29 18 -221 -139 -204 -166 4 -7 3 -9 -3 -6 -12 8 -59 -92 -73 -153
-11 -51 -13 -153 -4 -163 4 -4 8 -23 10 -43 2 -21 8 -41 15 -44 6 -4 10 -11
10 -16 -2 -19 18 -63 38 -83 12 -12 21 -24 22 -28 1 -5 5 -7 11 -5 5 1 7 -1 4
-6 -3 -5 14 -26 37 -48 23 -21 35 -30 27 -18 -8 11 -4 8 10 -7 34 -38 119 -75
201 -90 293 -52 566 207 534 506 -3 36 -11 63 -16 60 -5 -4 -6 1 -3 9 12 32
-94 214 -117 201 -5 -4 -8 -1 -7 7 2 7 -3 12 -10 10 -8 -1 -11 2 -8 7 6 10
-41 44 -61 44 -7 0 -10 4 -8 8 7 10 -74 41 -87 33 -6 -4 -8 -2 -4 4 7 12 -76
28 -93 18 -5 -4 -12 -2 -16 4 -8 12 -65 14 -65 1z m53 -8 c-7 -2 -21 -2 -30 0
-10 3 -4 5 12 5 17 0 24 -2 18 -5z m-150 -536 c20 -18 43 -50 51 -72 12 -33
15 -36 16 -15 l0 25 21 -25 c11 -14 24 -34 28 -45 11 -25 17 -12 26 57 3 26
15 57 25 70 l20 23 -6 -30 c-4 -22 1 -42 18 -70 13 -23 25 -63 28 -93 l5 -54
26 21 c15 11 34 36 43 56 9 19 21 35 26 35 5 0 10 -24 12 -52 l3 -53 37 50
c20 28 51 58 68 69 l32 18 -7 -23 c-5 -13 -12 -39 -16 -57 -4 -19 -18 -45 -31
-59 -24 -27 -224 -126 -276 -138 -39 -8 -190 29 -212 52 -22 22 -72 133 -61
133 5 0 20 -18 35 -40 14 -22 33 -40 42 -40 9 0 12 5 8 12 -4 7 -11 51 -15 98
-4 47 -11 104 -15 127 -3 23 -3 59 1 80 l8 38 11 -33 c6 -18 28 -48 49 -65z
m-133 -41 c0 -3 -4 -8 -10 -11 -5 -3 -10 -1 -10 4 0 6 5 11 10 11 6 0 10 -2
10 -4z m-93 -53 c-3 -10 -5 -4 -5 12 0 17 2 24 5 18 2 -7 2 -21 0 -30z"/>
<path d="M3095 3323 c-59 -7 -115 -26 -108 -36 3 -5 1 -7 -5 -3 -13 8 -63 -14
-56 -25 3 -5 -1 -7 -8 -4 -33 13 -207 -186 -194 -221 3 -7 0 -14 -6 -16 -6 -2
-12 -21 -12 -41 -1 -20 -4 -37 -8 -37 -5 0 -8 -36 -8 -81 0 -58 3 -78 12 -73
7 5 8 3 3 -5 -10 -17 15 -102 28 -94 6 3 7 1 3 -5 -4 -6 1 -26 10 -43 13 -25
18 -29 26 -18 7 10 8 9 4 -6 -9 -30 115 -146 179 -169 16 -5 14 -2 -7 16 -29
25 -94 150 -74 142 7 -3 20 -18 30 -34 9 -17 25 -34 35 -39 17 -9 18 -5 14 67
-3 42 -11 97 -19 121 -18 56 -17 119 1 151 l14 25 1 -30 c0 -24 11 -42 48 -76
27 -25 53 -61 59 -80 6 -19 11 -26 12 -16 2 27 17 20 41 -19 12 -19 24 -33 26
-31 3 2 9 31 14 63 6 35 18 66 30 78 l20 21 -6 -30 c-4 -22 1 -42 20 -75 18
-31 26 -60 26 -92 0 -27 4 -48 8 -48 13 0 68 62 85 95 18 35 25 24 29 -45 l3
-45 37 50 c34 47 98 97 98 77 0 -4 -7 -32 -15 -60 -21 -69 -61 -101 -205 -163
-122 -53 -131 -54 -270 -34 l-35 5 40 -16 c27 -11 70 -17 130 -17 148 0 284
61 365 164 40 49 93 157 86 175 -3 7 0 14 7 17 7 2 11 34 11 93 0 91 -15 163
-38 186 -7 7 -11 19 -8 27 3 8 0 11 -7 7 -6 -4 -9 -2 -6 6 6 14 -83 133 -92
124 -3 -3 -14 5 -23 17 -22 28 -125 81 -139 72 -6 -3 -11 -1 -11 6 0 6 -8 9
-20 6 -12 -3 -18 -1 -14 5 4 6 -18 8 -62 4 -45 -3 -59 -2 -39 3 l30 9 -30 -1
c-16 0 -43 -2 -60 -4z"/>
<path d="M1456 3254 c-9 -23 -8 -24 19 -24 23 0 24 2 15 20 -13 24 -26 26 -34
4z"/>
<path d="M1405 3139 c-15 -33 -25 -62 -23 -64 1 -1 22 26 45 61 35 53 39 64
24 64 -13 0 -27 -18 -46 -61z"/>
<path d="M2420 3171 c-41 -13 -69 -34 -96 -73 -21 -30 -24 -40 -14 -58 9 -17
14 -19 26 -9 22 18 27 6 33 -74 4 -45 9 -67 15 -59 14 22 19 128 8 162 -11 30
-10 32 24 46 37 16 91 8 128 -19 15 -11 16 -17 7 -35 -12 -22 -15 -110 -5
-136 12 -30 24 -16 24 29 0 44 16 95 31 95 4 0 21 -14 37 -31 l29 -31 7 26 c8
34 -2 53 -57 103 -29 27 -64 47 -98 57 -58 18 -62 18 -99 7z"/>
<path d="M2397 2789 c-3 -8 -10 -45 -17 -84 -7 -38 -37 -160 -66 -270 -61
-228 -69 -315 -34 -372 17 -29 25 -33 64 -33 63 0 96 15 96 42 0 32 11 45 42
53 24 6 29 2 48 -35 37 -73 133 -91 189 -35 24 23 26 33 26 103 -1 69 -9 101
-78 307 -79 236 -112 310 -137 310 -7 0 -18 -15 -22 -32 -5 -18 -11 -33 -15
-33 -3 0 -26 21 -49 47 -29 32 -45 42 -47 32z"/>
<path d="M3469 2484 c-7 -9 -36 -29 -64 -45 -41 -24 -46 -29 -25 -29 14 0 44
9 68 20 33 15 42 24 42 45 0 29 -3 31 -21 9z"/>
<path d="M1577 2439 c7 -7 15 -10 18 -7 3 3 -2 9 -12 12 -14 6 -15 5 -6 -5z"/>
<path d="M1912 2343 c-12 -2 -30 -17 -39 -31 -9 -15 -18 -29 -20 -31 -2 -2
-31 -8 -64 -13 -71 -9 -143 -46 -191 -95 -18 -20 -28 -34 -23 -31 6 2 42 20
80 39 68 33 73 34 190 34 103 0 126 -3 163 -22 23 -11 42 -17 42 -13 0 11 -55
53 -100 75 -69 35 -61 62 21 71 33 4 58 8 57 9 -7 6 -95 12 -116 8z"/>
<path d="M3035 2330 c-4 -6 8 -10 29 -10 67 0 55 -41 -27 -93 -59 -38 -93 -72
-61 -61 10 4 24 10 29 14 19 14 104 30 155 30 67 0 160 -24 224 -58 73 -39 75
-38 36 3 -50 52 -118 84 -210 97 -72 10 -80 13 -74 30 9 29 -23 58 -62 58 -18
0 -36 -4 -39 -10z"/>
<path d="M2311 1864 c0 -11 3 -14 6 -6 3 7 2 16 -1 19 -3 4 -6 -2 -5 -13z"/>
<path d="M3341 1694 c0 -11 3 -14 6 -6 3 7 2 16 -1 19 -3 4 -6 -2 -5 -13z"/>
<path d="M2362 1071 c-53 -20 -126 -60 -120 -67 2 -2 35 7 73 19 92 28 260 30
350 2 33 -10 67 -20 75 -22 31 -9 -26 30 -80 54 -77 36 -221 42 -298 14z"/>
<path d="M2040 911 c0 -20 21 -55 44 -73 17 -14 42 -18 124 -18 57 0 112 -5
123 -10 34 -18 22 9 -13 30 -26 16 -51 20 -123 20 -87 0 -90 1 -122 32 -18 18
-33 26 -33 19z"/>
<path d="M3058 888 c-25 -27 -31 -28 -122 -28 -84 0 -98 -3 -121 -22 l-26 -23
118 3 c123 4 152 12 173 53 20 36 6 46 -22 17z"/>
<path d="M1131 4716 c-9 -10 -8 -15 3 -19 10 -4 14 0 13 14 -2 23 -1 23 -16 5z"/>
<path d="M1115 4680 c3 -5 8 -10 11 -10 2 0 4 5 4 10 0 6 -5 10 -11 10 -5 0
-7 -4 -4 -10z"/>
<path d="M1060 4676 c0 -2 8 -10 18 -17 15 -13 16 -12 3 4 -13 16 -21 21 -21
13z"/>
<path d="M1155 4670 c3 -5 8 -10 11 -10 2 0 4 5 4 10 0 6 -5 10 -11 10 -5 0
-7 -4 -4 -10z"/>
<path d="M1121 4634 c0 -11 3 -14 6 -6 3 7 2 16 -1 19 -3 4 -6 -2 -5 -13z"/>
</g>
</svg>
